<?xml version="1.0" standalone="no"?>
<!DOCTYPE svg PUBLIC "-//W3C//DTD SVG 20010904//EN"
 "http://www.w3.org/TR/2001/REC-SVG-20010904/DTD/svg10.dtd">
<svg version="1.0" xmlns="http://www.w3.org/2000/svg"
 width="27.000000pt" height="35.000000pt" viewBox="0 0 27.000000 35.000000"
 preserveAspectRatio="xMidYMid meet">

<g transform="translate(0.000000,35.000000) scale(0.100000,-0.100000)"
fill="#000000" stroke="none">
<path d="M0 342 c0 -4 17 -6 38 -4 64 6 69 10 15 11 -29 0 -53 -3 -53 -7z"/>
<path d="M180 344 c38 -8 90 -9 90 -2 0 4 -24 7 -52 7 -29 -1 -46 -3 -38 -5z"/>
<path d="M53 323 c-32 -4 -33 -6 -33 -49 0 -24 2 -44 5 -44 3 0 27 14 53 30
27 17 53 30 57 30 4 0 30 -13 57 -30 26 -16 50 -30 53 -30 3 0 5 20 5 44 l0
43 -46 7 c-48 6 -94 6 -151 -1z"/>
<path d="M80 249 c-25 -16 -46 -33 -48 -38 -3 -9 73 -57 99 -63 8 -2 13 2 12
9 -2 7 4 10 15 7 11 -4 8 1 -8 15 -20 17 -21 20 -5 14 18 -6 19 -5 5 12 -14
18 -12 18 21 -2 29 -16 39 -18 52 -8 9 7 17 15 17 18 0 7 -101 67 -110 66 -3
0 -25 -14 -50 -30z"/>
<path d="M20 141 c0 -49 1 -50 53 -82 28 -18 57 -32 62 -32 6 0 34 14 63 32
52 32 52 33 52 83 0 55 -23 65 -28 12 -2 -23 -13 -36 -45 -55 l-43 -26 -37 24
c-40 25 -48 36 -19 27 16 -5 16 -5 0 9 -30 24 -20 30 13 7 16 -12 32 -20 35
-17 5 4 -90 67 -101 67 -3 0 -5 -22 -5 -49z"/>
<path d="M160 186 c0 -2 7 -7 16 -10 8 -3 12 -2 9 4 -6 10 -25 14 -25 6z"/>
<path d="M104 105 c11 -8 25 -15 30 -15 6 0 2 7 -8 15 -11 8 -25 15 -30 15 -6
0 -2 -7 8 -15z"/>
<path d="M0 41 l0 -41 67 0 c75 0 75 0 -19 54 l-48 28 0 -41z"/>
<path d="M202 42 l-63 -37 61 -3 c34 -2 64 -1 67 1 2 3 3 21 1 41 l-3 36 -63
-38z"/>
</g>
</svg>
